#N canvas 26 23 1441 931 10;
#X obj 50 21 inlet;
#X obj 156 140 bng 19 250 50 0 empty empty empty 17 7 0 10 #dfdfdf #000000 #000000;
#X obj 43 55 cnv 16 290 180 empty empty Ready 20 12 1 10 #dfdfdf #404040 0;
#X msg 50 108 start;
#X obj 112 80 loadbang;
#X obj 314 215 bng 19 250 50 0 empty empty empty 17 7 0 10 #dfdfdf #000000 #000000;
#X obj 79 144 readsf~ 1;
#X obj 50 79 t b b;
#X obj 79 185 throw~ ch1;
#X obj 62 209 throw~ ch2;
#X msg 101 108 open ./wav_files/countdown_ready.wav;
#X obj 314 240 delay 1 1 sec;
#X obj 420 345 bng 19 250 50 0 empty empty empty 17 7 0 10 #dfdfdf #000000 #000000;
#X obj 307 260 cnv 16 290 180 empty empty 3 20 12 1 10 #ffc7c6 #404040 0;
#X msg 314 313 start;
#X obj 376 285 loadbang;
#X obj 578 420 bng 19 250 50 0 empty empty empty 17 7 0 10 #dfdfdf #000000 #000000;
#X obj 343 349 readsf~ 1;
#X obj 314 284 t b b;
#X obj 343 390 throw~ ch1;
#X obj 326 414 throw~ ch2;
#X msg 365 313 open ./wav_files/countdown_three.wav;
#X obj 684 552 bng 19 250 50 0 empty empty empty 17 7 0 10 #dfdfdf #000000 #000000;
#X obj 571 467 cnv 16 290 180 empty empty 2 20 12 1 10 #ffe3c6 #404040 0;
#X msg 578 520 start;
#X obj 640 492 loadbang;
#X obj 842 627 bng 19 250 50 0 empty empty empty 17 7 0 10 #dfdfdf #000000 #000000;
#X obj 607 556 readsf~ 1;
#X obj 578 491 t b b;
#X obj 607 597 throw~ ch1;
#X obj 590 621 throw~ ch2;
#X msg 629 520 open ./wav_files/countdown_two.wav;
#X obj 948 761 bng 19 250 50 0 empty empty empty 17 7 0 10 #dfdfdf #000000 #000000;
#X obj 835 676 cnv 16 290 180 empty empty 1 20 12 1 10 #feffc6 #404040 0;
#X msg 842 729 start;
#X obj 904 701 loadbang;
#X obj 1106 836 bng 19 250 50 0 empty empty empty 17 7 0 10 #dfdfdf #000000 #000000;
#X obj 871 765 readsf~ 1;
#X obj 842 700 t b b;
#X obj 871 806 throw~ ch1;
#X obj 854 830 throw~ ch2;
#X obj 103 30 bng 19 250 50 0 empty empty empty 17 7 0 10 #dfdfdf #000000 #000000;
#X msg 893 729 open ./wav_files/countdown_one.wav;
#X obj 578 449 delay 0.5 1 sec;
#X obj 842 656 delay 0.5 1 sec;
#X obj 1131 855 delay 0.5 1 sec;
#X obj 1012 204 bng 19 250 50 0 empty empty empty 17 7 0 10 #dfdfdf #000000 #000000;
#X obj 899 119 cnv 16 290 180 empty empty GO! 20 12 1 10 #c6ffc7 #404040 0;
#X msg 906 172 start;
#X obj 968 144 loadbang;
#X obj 935 208 readsf~ 1;
#X obj 906 143 t b b;
#X obj 935 249 throw~ ch1;
#X obj 918 273 throw~ ch2;
#X msg 957 172 open ./wav_files/countdown_go.wav;
#X obj 1171 312 outlet;
#X obj 1171 280 bng 19 250 50 0 empty empty empty 17 7 0 10 #dfdfdf #000000 #000000;
#X connect 0 0 7 0;
#X connect 3 0 6 0;
#X connect 4 0 10 0;
#X connect 5 0 11 0;
#X connect 6 0 8 0;
#X connect 6 0 9 0;
#X connect 6 1 5 0;
#X connect 7 0 3 0;
#X connect 7 1 10 0;
#X connect 10 0 6 0;
#X connect 11 0 18 0;
#X connect 14 0 17 0;
#X connect 15 0 21 0;
#X connect 16 0 43 0;
#X connect 17 0 19 0;
#X connect 17 0 20 0;
#X connect 17 1 16 0;
#X connect 18 0 14 0;
#X connect 18 1 21 0;
#X connect 21 0 17 0;
#X connect 24 0 27 0;
#X connect 25 0 31 0;
#X connect 26 0 44 0;
#X connect 27 0 29 0;
#X connect 27 0 30 0;
#X connect 27 1 26 0;
#X connect 28 0 24 0;
#X connect 28 1 31 0;
#X connect 31 0 27 0;
#X connect 34 0 37 0;
#X connect 35 0 42 0;
#X connect 36 0 45 0;
#X connect 37 0 39 0;
#X connect 37 0 40 0;
#X connect 37 1 36 0;
#X connect 38 0 34 0;
#X connect 38 1 42 0;
#X connect 41 0 7 0;
#X connect 42 0 37 0;
#X connect 43 0 28 0;
#X connect 44 0 38 0;
#X connect 45 0 51 0;
#X connect 48 0 50 0;
#X connect 49 0 54 0;
#X connect 50 0 52 0;
#X connect 50 0 53 0;
#X connect 50 1 56 0;
#X connect 51 0 48 0;
#X connect 51 1 54 0;
#X connect 54 0 50 0;
#X connect 56 0 55 0;
