#N canvas 847 66 716 535 10;
#X obj 626 101 tgl 15 0 empty empty empty 17 7 0 10 #fcfcfc #000000 #000000 0 1;
#X obj 626 69 inlet;
#X obj 626 123 switch~;
#X text 469 47 Enable/disable DSP in this patch;
#X msg 400 192 start;
#X obj 400 217 readsf~ 1;
#X obj 400 247 throw~ ch1;
#X obj 558 65 bng 19 250 50 0 empty empty empty 17 7 0 10 #dfdfdf #000000 #000000;
#X obj 558 99 outlet;
#X obj 67 21 r _w0;
#X floatatom 67 48 5 0 0 0 - - - 0;
#X obj 87 76 select 0 1 2 3;
#X obj 27 106 cnv 16 300 80 empty empty Invalid\ move\  20 12 0 10 #e3c6ff #404040 0;
#X obj 101 133 loadbang;
#X obj 52 133 t b b;
#X obj 90 190 cnv 16 300 80 empty empty Player1\ wins 20 12 0 10 #ffc7c6 #404040 0;
#X obj 164 217 loadbang;
#X obj 115 217 t b b;
#X msg 142 247 open ./wav_files/player_1_wins.wav;
#X obj 130 274 cnv 16 300 80 empty empty Player2\ wins 20 12 0 10 #c7c6ff #404040 0;
#X obj 204 301 loadbang;
#X obj 155 301 t b b;
#X msg 182 331 open ./wav_files/player_2_wins.wav;
#X obj 162 358 cnv 16 300 80 empty empty Tie 20 12 0 10 #feffc6 #404040 0;
#X obj 236 385 loadbang;
#X obj 187 385 t b b;
#X floatatom 217 71 5 0 0 0 - - - 0;
#X msg 447 279 start;
#X obj 447 304 readsf~ 1;
#X obj 446 332 throw~ ch2;
#X msg 214 415 open ./wav_files/nocontest.wav;
#X msg 79 163 open ./wav_files/nocontest.wav;
#X msg 489 369 start;
#X obj 489 394 readsf~ 1;
#X obj 488 422 throw~ ch2;
#X obj 473 440 throw~ ch1;
#X connect 0 0 2 0;
#X connect 1 0 0 0;
#X connect 4 0 5 0;
#X connect 5 0 6 0;
#X connect 5 1 7 0;
#X connect 7 0 0 0;
#X connect 7 0 8 0;
#X connect 9 0 10 0;
#X connect 10 0 11 0;
#X connect 11 0 14 0;
#X connect 11 1 17 0;
#X connect 11 2 21 0;
#X connect 11 3 25 0;
#X connect 11 4 26 0;
#X connect 13 0 31 0;
#X connect 14 0 32 0;
#X connect 14 1 31 0;
#X connect 16 0 18 0;
#X connect 17 0 4 0;
#X connect 17 1 18 0;
#X connect 18 0 5 0;
#X connect 20 0 22 0;
#X connect 21 0 27 0;
#X connect 21 1 22 0;
#X connect 22 0 28 0;
#X connect 24 0 30 0;
#X connect 25 0 32 0;
#X connect 25 1 30 0;
#X connect 27 0 28 0;
#X connect 28 0 29 0;
#X connect 28 1 7 0;
#X connect 30 0 33 0;
#X connect 31 0 33 0;
#X connect 32 0 33 0;
#X connect 33 0 34 0;
#X connect 33 0 35 0;
#X connect 33 1 7 0;
