#N canvas 75 22 716 535 10;
#X obj 398 411 tgl 15 0 empty empty empty 17 7 0 10 #fcfcfc #000000 #000000 0 1;
#X obj 398 379 inlet;
#X obj 398 433 switch~;
#X text 197 434 Enable/disable DSP in this patch;
#X obj 198 205 loadbang;
#X obj 149 205 t b b;
#X obj 185 62 unpack s f;
#X obj 242 87 tgl 30 0 empty empty empty 17 7 0 10 #fcfcfc #000000 #000000 0 1;
#X floatatom 332 178 5 0 0 0 - - - 0;
#X obj 274 260 loadbang;
#X obj 230 261 t b b;
#X obj 185 34 r w0;
#X obj 242 154 select 1 2;
#X msg 98 306 start;
#X obj 98 331 readsf~ 1;
#X obj 97 359 throw~ ch1;
#X obj 183 358 bng 19 250 50 0 empty empty empty 17 7 0 10 #dfdfdf #000000 #000000;
#X obj 77 386 throw~ ch2;
#X msg 176 235 open ./wav_files/player_1_wins.wav;
#X msg 258 287 open ./wav_files/player_2_wins.wav;
#X msg 299 101 1;
#X obj 187 398 outlet;
#X connect 0 0 2 0;
#X connect 1 0 0 0;
#X connect 4 0 18 0;
#X connect 5 0 13 0;
#X connect 5 1 18 0;
#X connect 6 1 7 0;
#X connect 7 0 12 0;
#X connect 9 0 19 0;
#X connect 10 0 13 0;
#X connect 10 1 19 0;
#X connect 11 0 6 0;
#X connect 12 0 5 0;
#X connect 12 1 10 0;
#X connect 12 2 8 0;
#X connect 13 0 14 0;
#X connect 14 0 15 0;
#X connect 14 0 17 0;
#X connect 14 1 16 0;
#X connect 16 0 0 0;
#X connect 16 0 21 0;
#X connect 18 0 14 0;
#X connect 19 0 14 0;
#X connect 20 0 12 0;
