#N canvas 30 74 1441 931 10;
#X obj 5 2 cnv 16 630 750 empty empty Player\ 1 20 12 1 10 #ffc7c6 #404040 0;
#X obj 638 2 cnv 16 630 750 empty empty Player\ 2 20 12 1 10 #c7c6ff #404040 0;
#X obj 269 707 throw~ ch1;
#X obj 282 9 r _a0;
#X obj 398 378 *~;
#X obj 486 229 hsl 128 15 1 5 0 1 empty empty empty -2 -6 0 8 #ff8300 #000000 #000000 6 1;
#X text 427 379 Multiplying the input signal by output of the LFO causes a modulation of the gain of the input signal., f 22;
#X floatatom 282 42 0 0 0 0 - - - 0;
#X floatatom 282 188 0 0 0 0 - - - 0;
#X floatatom 381 186 0 0 0 0 - - - 0;
#X msg 282 284 0;
#X obj 282 236 bng 25 250 50 0 empty empty Hand\ not\ detected 0 -8 2 10 #ffc7c6 #000000 #000000;
#X msg 381 286 440;
#X obj 381 235 bng 25 250 50 0 empty empty Hand\ detected 0 -8 2 10 #c6ffc7 #000000 #404040;
#X text 345 9 receive IR signal;
#X floatatom 381 76 5 0 0 0 - - - 0;
#X obj 381 140 moses 6, f 17;
#X msg 381 46 1;
#X text 28 75 [moses] sends numbers to the left if they're less than the argument \, right otherwise:, f 37;
#X text 24 114 if _a0 < 1 || _a0 >= 6 -> hand not detected else -> hand detected \, modulated audio feedback, f 31;
#X obj 1057 391 *~;
#X obj 1145 242 hsl 128 15 1 5 0 1 empty empty empty -2 -6 0 8 #ff8300 #000000 #000000 720 1;
#X text 1097 392 Multiplying the input signal by output of the LFO causes a modulation of the gain of the input signal., f 22;
#X floatatom 941 55 0 0 0 0 - - - 0;
#X floatatom 941 201 0 0 0 0 - - - 0;
#X floatatom 1040 199 0 0 0 0 - - - 0;
#X obj 995 346 osc~ 440;
#X msg 941 297 0;
#X obj 941 249 bng 25 250 50 0 empty empty Hand\ not\ detected 0 -8 2 10 #ffc7c6 #000000 #000000;
#X msg 1040 299 440;
#X obj 1040 248 bng 25 250 50 0 empty empty Hand\ detected 0 -8 2 10 #c6ffc7 #000000 #404040;
#X text 1004 22 receive IR signal;
#X floatatom 1040 89 5 0 0 0 - - - 0;
#X obj 1040 153 moses 6, f 17;
#X msg 1040 59 1;
#X text 699 92 [moses] sends numbers to the left if they're less than the argument \, right otherwise:, f 37;
#X text 699 137 if _a0 < 1 || _a0 >= 6 -> hand not detected else -> hand detected \, modulated audio feedback, f 32;
#X obj 1142 343 osc~ 440;
#X obj 941 22 r _a1;
#X obj 483 283 phasor~ 440;
#X obj 483 333 cos~ 440;
#X obj 336 333 phasor~ 440;
#X obj 156 401 bng 19 250 50 0 empty empty empty 17 7 0 10 #dfdfdf #000000 #000000;
#X text 5 314 If hand detected for 3 seconds "Player 1 ready" sound is triggered, f 19;
#X floatatom 809 344 5 0 0 0 - - - 0;
#X obj 809 413 bng 19 250 50 0 empty empty empty 17 7 0 10 #dfdfdf #000000 #000000;
#X msg 228 476 open ./wav_files/player_1.wav;
#X msg 175 485 start;
#X obj 228 442 loadbang;
#X obj 226 554 bng 19 250 50 0 empty empty empty 17 7 0 10 #dfdfdf #000000 #000000;
#X floatatom 132 526 3 0 0 0 - - - 0;
#X obj 268 651 selector~ 2 2;
#X obj 175 524 readsf~ 1;
#X obj 156 450 t b b b;
#X msg 780 523 start;
#X obj 833 480 loadbang;
#X obj 831 592 bng 19 250 50 0 empty empty empty 17 7 0 10 #dfdfdf #000000 #000000;
#X floatatom 737 564 3 0 0 0 - - - 0;
#X obj 852 667 selector~ 2 2;
#X obj 780 562 readsf~ 1;
#X obj 761 488 t b b b;
#X obj 852 702 throw~ ch2;
#X msg 833 514 open ./wav_files/player_2.wav;
#X msg 132 485 1;
#X msg 737 523 1;
#X obj 282 108 moses 1, f 17;
#X obj 941 121 moses 1, f 17;
#X obj 533 641 cnv 16 250 200 empty empty empty 20 12 1 10 #bbbbbb #404040 0;
#X obj 735 797 tgl 15 0 empty empty empty 17 7 0 10 #fcfcfc #000000 #000000 0 1;
#X obj 735 765 inlet;
#X obj 637 765 outlet;
#X obj 637 741 select 2;
#X obj 704 766 bng 19 250 50 0 empty empty empty 17 7 0 10 #dfdfdf #000000 #000000;
#X obj 600 687 +;
#X msg 599 661 1;
#X floatatom 637 715 5 0 0 0 - - - 0;
#X obj 636 687 int 0;
#X obj 735 819 switch~;
#X text 534 820 Enable/disable DSP in this patch;
#X msg 637 790 2;
#X msg 601 790 0;
#X obj 809 298 timer 60 permin;
#X obj 809 321 int;
#X text 668 322 If hand detected for 3 seconds "Player 2 ready" sound is triggered, f 19;
#X floatatom 154 339 5 0 0 0 - - - 0;
#X obj 154 293 timer 60 permin;
#X obj 154 316 int;
#X msg 889 371 42;
#X msg 231 365 42;
#X obj 154 364 select 2;
#X obj 809 369 select 2;
#X msg 565 790 2;
#X connect 3 0 7 0;
#X connect 4 0 51 2;
#X connect 5 0 39 0;
#X connect 7 0 65 0;
#X connect 8 0 11 0;
#X connect 9 0 13 0;
#X connect 9 0 5 0;
#X connect 10 0 41 0;
#X connect 11 0 10 0;
#X connect 11 0 85 0;
#X connect 12 0 41 0;
#X connect 13 0 12 0;
#X connect 13 0 85 1;
#X connect 15 0 65 1;
#X connect 16 0 9 0;
#X connect 16 1 8 0;
#X connect 17 0 15 0;
#X connect 20 0 58 2;
#X connect 21 0 37 0;
#X connect 23 0 66 0;
#X connect 24 0 28 0;
#X connect 25 0 30 0;
#X connect 25 0 21 0;
#X connect 26 0 20 0;
#X connect 27 0 26 0;
#X connect 28 0 27 0;
#X connect 28 0 81 0;
#X connect 29 0 26 0;
#X connect 30 0 29 0;
#X connect 30 0 81 1;
#X connect 32 0 66 1;
#X connect 33 0 25 0;
#X connect 33 1 24 0;
#X connect 34 0 32 0;
#X connect 37 0 20 1;
#X connect 38 0 23 0;
#X connect 39 0 40 0;
#X connect 40 0 4 1;
#X connect 41 0 4 0;
#X connect 42 0 53 0;
#X connect 44 0 90 0;
#X connect 45 0 60 0;
#X connect 46 0 52 0;
#X connect 47 0 52 0;
#X connect 48 0 46 0;
#X connect 49 0 74 0;
#X connect 50 0 51 0;
#X connect 51 0 2 0;
#X connect 52 0 51 1;
#X connect 52 1 49 0;
#X connect 53 0 63 0;
#X connect 53 1 47 0;
#X connect 53 2 46 0;
#X connect 54 0 59 0;
#X connect 55 0 62 0;
#X connect 56 0 74 0;
#X connect 57 0 58 0;
#X connect 58 0 61 0;
#X connect 59 0 58 1;
#X connect 59 1 56 0;
#X connect 60 0 64 0;
#X connect 60 1 54 0;
#X connect 60 2 62 0;
#X connect 62 0 59 0;
#X connect 63 0 50 0;
#X connect 64 0 57 0;
#X connect 65 0 8 0;
#X connect 65 1 16 0;
#X connect 66 0 24 0;
#X connect 66 1 33 0;
#X connect 68 0 77 0;
#X connect 69 0 68 0;
#X connect 71 0 70 0;
#X connect 71 0 72 0;
#X connect 71 0 79 0;
#X connect 71 0 80 0;
#X connect 71 0 91 0;
#X connect 72 0 68 0;
#X connect 73 0 76 0;
#X connect 74 0 73 0;
#X connect 75 0 71 0;
#X connect 76 0 73 1;
#X connect 76 0 75 0;
#X connect 79 0 51 0;
#X connect 79 0 58 0;
#X connect 80 0 76 0;
#X connect 81 0 82 0;
#X connect 82 0 44 0;
#X connect 84 0 89 0;
#X connect 85 0 86 0;
#X connect 86 0 84 0;
#X connect 87 0 90 1;
#X connect 88 0 89 1;
#X connect 89 0 42 0;
#X connect 89 0 88 0;
#X connect 90 0 45 0;
#X connect 90 0 87 0;
#X connect 91 0 89 1;
#X connect 91 0 90 1;
