#N canvas 249 93 1012 673 10;
#X msg 208 420 start;
#X obj 82 216 loadbang;
#X obj 208 445 readsf~ 1;
#X obj 33 216 t b b;
#X obj 207 473 throw~ ch1;
#X obj 293 472 bng 19 250 50 0 empty empty empty 17 7 0 10 #dfdfdf #000000 #000000;
#X obj 47 15 cnv 16 200 150 empty empty Receive\ P1\ signs 20 12 0 10 #ffc7c6 #404040 0;
#X obj 69 73 unpack s f;
#X obj 126 98 tgl 30 0 empty empty empty 17 7 0 10 #fcfcfc #000000 #000000 0 1;
#X obj 69 45 r d0;
#X obj 412 16 cnv 16 200 150 empty empty Receive\ P2\ signs 20 12 0 10 #c7c6ff #404040 0;
#X obj 434 74 unpack s f;
#X obj 512 99 tgl 30 0 empty empty empty 17 7 0 10 #fcfcfc #000000 #000000 0 1;
#X obj 434 46 r d1;
#X obj 126 165 select 0 1 2;
#X floatatom 216 189 5 0 0 0 - - - 0;
#X obj 158 271 loadbang;
#X obj 114 272 t b b;
#X obj 252 322 loadbang;
#X obj 207 321 t b b;
#X text 11 402 sostituire file audio;
#X msg 620 406 start;
#X obj 503 210 loadbang;
#X obj 620 431 readsf~ 1;
#X obj 454 210 t b b;
#X obj 715 456 bng 19 250 50 0 empty empty empty 17 7 0 10 #dfdfdf #000000 #000000;
#X obj 513 165 select 0 1 2;
#X floatatom 601 199 5 0 0 0 - - - 0;
#X obj 579 265 loadbang;
#X obj 535 266 t b b;
#X obj 673 316 loadbang;
#X obj 628 315 t b b;
#X text 478 418 sostituire file audio;
#X obj 629 457 throw~ ch2;
#X obj 403 476 cnv 16 250 200 empty empty empty 20 12 1 10 #bbbbbb #404040 0;
#X obj 605 632 tgl 15 0 empty empty empty 17 7 0 10 #fcfcfc #000000 #000000 0 1;
#X obj 605 600 inlet;
#X obj 507 600 outlet;
#X obj 507 576 select 2;
#X obj 574 601 bng 19 250 50 0 empty empty empty 17 7 0 10 #dfdfdf #000000 #000000;
#X obj 470 522 +;
#X msg 469 496 1;
#X floatatom 507 550 5 0 0 0 - - - 0;
#X obj 506 522 int 0;
#X obj 605 654 switch~;
#X text 404 655 Enable/disable DSP in this patch;
#X msg 471 625 0;
#X msg 60 246 open ./wav_files/rock.wav;
#X msg 481 240 open ./wav_files/rock.wav;
#X msg 142 298 open ./wav_files/paper.wav;
#X msg 563 292 open ./wav_files/paper.wav;
#X msg 183 112 2;
#X msg 655 344 open ./wav_files/scissors.wav;
#X msg 234 350 open ./wav_files/scissors.wav;
#X msg 565 112 0;
#X connect 0 0 2 0;
#X connect 1 0 47 0;
#X connect 2 0 4 0;
#X connect 2 1 5 0;
#X connect 3 0 0 0;
#X connect 3 1 47 0;
#X connect 5 0 41 0;
#X connect 7 1 8 0;
#X connect 8 0 14 0;
#X connect 9 0 7 0;
#X connect 11 1 12 0;
#X connect 12 0 26 0;
#X connect 13 0 11 0;
#X connect 14 0 3 0;
#X connect 14 1 17 0;
#X connect 14 2 19 0;
#X connect 14 3 15 0;
#X connect 16 0 49 0;
#X connect 17 0 0 0;
#X connect 17 1 49 0;
#X connect 18 0 53 0;
#X connect 19 0 0 0;
#X connect 19 1 53 0;
#X connect 21 0 23 0;
#X connect 22 0 48 0;
#X connect 23 0 33 0;
#X connect 23 1 25 0;
#X connect 24 0 21 0;
#X connect 24 1 48 0;
#X connect 25 0 41 0;
#X connect 26 0 24 0;
#X connect 26 1 29 0;
#X connect 26 2 31 0;
#X connect 26 3 27 0;
#X connect 28 0 50 0;
#X connect 29 0 21 0;
#X connect 29 1 50 0;
#X connect 30 0 52 0;
#X connect 31 0 21 0;
#X connect 31 1 52 0;
#X connect 35 0 44 0;
#X connect 36 0 35 0;
#X connect 38 0 37 0;
#X connect 38 0 39 0;
#X connect 38 0 46 0;
#X connect 39 0 35 0;
#X connect 40 0 43 0;
#X connect 41 0 40 0;
#X connect 42 0 38 0;
#X connect 43 0 40 1;
#X connect 43 0 42 0;
#X connect 46 0 43 0;
#X connect 47 0 2 0;
#X connect 48 0 23 0;
#X connect 49 0 2 0;
#X connect 50 0 23 0;
#X connect 51 0 14 0;
#X connect 52 0 23 0;
#X connect 53 0 2 0;
#X connect 54 0 26 0;
