#N canvas 69 230 1012 673 10;
#X msg 59 509 start;
#X obj 59 534 readsf~ 1;
#X obj 58 562 throw~ ch1;
#X obj 144 561 bng 19 250 50 0 empty empty empty 17 7 0 10 #dfdfdf #000000 #000000;
#X obj 47 15 cnv 16 200 100 empty empty Receive\ P1\ signs 20 12 0 10 #ffc7c6 #404040 0;
#X obj 338 20 cnv 16 200 100 empty empty Receive\ P2\ signs 20 12 0 10 #c7c6ff #404040 0;
#X obj 106 98 select 0 1 2;
#X msg 470 504 start;
#X obj 470 529 readsf~ 1;
#X obj 559 563 bng 19 250 50 0 empty empty empty 17 7 0 10 #dfdfdf #000000 #000000;
#X obj 397 102 select 0 1 2;
#X obj 479 555 throw~ ch2;
#X obj 222 579 cnv 16 250 200 empty empty empty 20 12 1 10 #bbbbbb #404040 0;
#X obj 424 735 tgl 15 0 empty empty empty 17 7 0 10 #fcfcfc #000000 #000000 0 1;
#X obj 424 703 inlet;
#X obj 326 703 outlet;
#X obj 326 679 select 2;
#X obj 393 704 bng 19 250 50 0 empty empty empty 17 7 0 10 #dfdfdf #000000 #000000;
#X obj 289 625 +;
#X msg 288 599 1;
#X floatatom 326 653 5 0 0 0 - - - 0;
#X obj 325 625 int 0;
#X obj 424 757 switch~;
#X text 223 758 Enable/disable DSP in this patch;
#X msg 290 728 0;
#X obj 69 45 r _d0;
#X obj 360 50 r _d1;
#X floatatom 360 73 5 0 0 0 - - - 0;
#X floatatom 69 70 5 0 0 0 - - - 0;
#X obj 23 149 cnv 16 650 80 empty empty Rock 20 12 0 10 #ca6500 #404040 0;
#X obj 86 180 loadbang;
#X obj 37 180 t b b;
#X msg 64 210 open ./wav_files/rock.wav;
#X obj 494 177 loadbang;
#X obj 445 177 t b b;
#X msg 472 207 open ./wav_files/rock.wav;
#X obj 101 233 cnv 16 650 80 empty empty Paper 20 12 0 10 #dfdfdf #404040 0;
#X obj 164 264 loadbang;
#X obj 115 264 t b b;
#X obj 572 261 loadbang;
#X obj 523 261 t b b;
#X msg 142 294 open ./wav_files/paper.wav;
#X msg 550 291 open ./wav_files/paper.wav;
#X obj 154 320 cnv 16 650 80 empty empty Scissors 20 12 0 10 #7c7c7c #404040 0;
#X obj 217 351 loadbang;
#X obj 168 351 t b b;
#X obj 625 348 loadbang;
#X obj 576 348 t b b;
#X msg 195 381 open ./wav_files/scissors.wav;
#X msg 603 378 open ./wav_files/scissors.wav;
#X obj 204 404 cnv 16 650 80 empty empty Invalid 20 12 0 10 #404040 #ffffff 0;
#X obj 267 435 loadbang;
#X obj 218 435 t b b;
#X obj 675 432 loadbang;
#X obj 626 432 t b b;
#X msg 653 462 open ./wav_files/invalid.wav;
#X msg 245 465 open ./wav_files/invalid.wav;
#X msg 876 134 disconnect;
#X obj 797 158 netsend -u;
#X text 879 160 UDP \, FUDI;
#X obj 797 187 tgl 19 0 empty empty empty 0 -10 0 12 #dfdfdf #000000 #000000 0 1;
#X msg 797 111 connect localhost 41234;
#X obj 797 87 loadbang;
#X msg 583 98 send p1-\$1;
#X msg 678 89 send p2-\$1;
#X connect 0 0 1 0;
#X connect 1 0 2 0;
#X connect 1 1 3 0;
#X connect 3 0 19 0;
#X connect 6 0 31 0;
#X connect 6 1 38 0;
#X connect 6 2 45 0;
#X connect 6 3 52 0;
#X connect 7 0 8 0;
#X connect 8 0 11 0;
#X connect 8 1 9 0;
#X connect 9 0 19 0;
#X connect 10 0 34 0;
#X connect 10 1 40 0;
#X connect 10 2 47 0;
#X connect 10 3 54 0;
#X connect 13 0 22 0;
#X connect 14 0 13 0;
#X connect 16 0 15 0;
#X connect 16 0 17 0;
#X connect 16 0 24 0;
#X connect 17 0 13 0;
#X connect 18 0 21 0;
#X connect 19 0 18 0;
#X connect 20 0 16 0;
#X connect 21 0 18 1;
#X connect 21 0 20 0;
#X connect 24 0 21 0;
#X connect 25 0 28 0;
#X connect 26 0 27 0;
#X connect 27 0 10 0;
#X connect 27 0 64 0;
#X connect 28 0 6 0;
#X connect 28 0 63 0;
#X connect 30 0 32 0;
#X connect 31 0 0 0;
#X connect 31 1 32 0;
#X connect 32 0 1 0;
#X connect 33 0 35 0;
#X connect 34 0 7 0;
#X connect 34 1 35 0;
#X connect 35 0 8 0;
#X connect 37 0 41 0;
#X connect 38 0 0 0;
#X connect 38 1 41 0;
#X connect 39 0 42 0;
#X connect 40 0 7 0;
#X connect 40 1 42 0;
#X connect 41 0 1 0;
#X connect 42 0 8 0;
#X connect 44 0 48 0;
#X connect 45 0 0 0;
#X connect 45 1 48 0;
#X connect 46 0 49 0;
#X connect 47 0 7 0;
#X connect 47 1 49 0;
#X connect 48 0 1 0;
#X connect 49 0 8 0;
#X connect 51 0 56 0;
#X connect 52 0 0 0;
#X connect 52 1 56 0;
#X connect 53 0 55 0;
#X connect 54 0 7 0;
#X connect 54 1 55 0;
#X connect 55 0 8 0;
#X connect 56 0 1 0;
#X connect 57 0 58 0;
#X connect 58 0 60 0;
#X connect 61 0 58 0;
#X connect 62 0 61 0;
#X connect 63 0 58 0;
#X connect 64 0 58 0;
