#N canvas 716 141 980 627 10;
#X obj 17 16 loadbang;
#X obj 17 43 delay 1000;
#X msg 17 146 \; pd dsp \$1;
#X obj 17 74 tgl 30 0 empty empty empty 17 7 0 10 #9c9c9c #000000 #000000 0 1;
#X obj 26 126 s global_volume_fade;
#X text 57 79 <-Click to start/stop DSP;
#X obj 20 374 catch~ ch1;
#X obj 65 400 catch~ ch2;
#X obj 145 490 line~;
#X obj 145 462 pack 0 500;
#X obj 145 433 r global_volume_fade;
#X obj 20 560 dac~ 1 2;
#X obj 477 138 _IR_wait;
#X obj 477 112 tgl 15 0 empty empty empty 17 7 0 10 #fcfcfc #000000 #000000 0 1;
#X obj 477 68 loadbang;
#X msg 477 91 1;
#X obj 477 231 _countdown;
#X obj 278 252 bng 50 250 50 0 empty empty Next\ round 8 -8 0 10 #ffc7c6 #000000 #000000;
#X obj 477 344 _receive_signs;
#X obj 477 458 _declare_winner;
#X obj 477 177 bng 40 250 100 0 empty empty Players\ ready 8 -8 0 10 #ffc7c6 #000000 #ff0400;
#X obj 673 22 cnv 16 200 510 empty empty Messages\ to\ Arduino 20 12 0 10 #e3c6ff #404040 0;
#X obj 698 149 s to_Arduino;
#X obj 698 123 _format_serial_messages;
#X msg 698 97 players_ready \$1;
#X msg 698 74 2;
#X obj 702 258 s to_Arduino;
#X obj 702 231 _format_serial_messages;
#X msg 702 180 0;
#X msg 702 206 count_end \$1;
#X obj 477 275 bng 40 250 100 0 empty empty Countdown\ finished 8 -8 0 10 #ffc7c6 #000000 #ff0400;
#X obj 706 372 s to_Arduino;
#X obj 706 347 _format_serial_messages;
#X msg 706 291 1;
#X msg 706 320 mov_rec \$1;
#X obj 477 387 bng 40 250 100 0 empty empty Moves\ received 8 -8 0 10 #ffc7c6 #000000 #ff0400;
#X obj 709 483 s to_Arduino;
#X obj 709 456 _format_serial_messages;
#X msg 709 403 1;
#X msg 709 431 win_ann \$1;
#X obj 476 23 _receive_from_Arduino;
#X obj 65 528 *~;
#X obj 20 528 *~;
#X connect 0 0 1 0;
#X connect 1 0 3 0;
#X connect 3 0 2 0;
#X connect 3 0 4 0;
#X connect 6 0 42 0;
#X connect 7 0 41 0;
#X connect 8 0 41 1;
#X connect 8 0 42 1;
#X connect 9 0 8 0;
#X connect 10 0 9 0;
#X connect 12 0 20 0;
#X connect 12 0 25 0;
#X connect 13 0 12 0;
#X connect 14 0 15 0;
#X connect 15 0 13 0;
#X connect 16 0 28 0;
#X connect 16 0 30 0;
#X connect 17 0 15 0;
#X connect 18 0 33 0;
#X connect 18 0 35 0;
#X connect 19 0 17 0;
#X connect 19 0 38 0;
#X connect 20 0 16 0;
#X connect 23 0 22 0;
#X connect 24 0 23 0;
#X connect 25 0 24 0;
#X connect 27 0 26 0;
#X connect 28 0 29 0;
#X connect 29 0 27 0;
#X connect 30 0 18 0;
#X connect 32 0 31 0;
#X connect 33 0 34 0;
#X connect 34 0 32 0;
#X connect 35 0 19 0;
#X connect 37 0 36 0;
#X connect 38 0 39 0;
#X connect 39 0 37 0;
#X connect 41 0 11 1;
#X connect 42 0 11 0;
