#N canvas 886 151 980 627 10;
#X obj 17 16 loadbang;
#X obj 17 43 delay 1000;
#X msg 17 146 \; pd dsp \$1;
#X obj 17 74 tgl 30 0 empty empty empty 17 7 0 10 #9c9c9c #000000 #000000 0 1;
#X obj 26 126 s global_volume_fade;
#X text 57 79 <-Click to start/stop DSP;
#X obj 20 374 catch~ ch1;
#X obj 65 400 catch~ ch2;
#X obj 20 528 *~;
#X obj 145 490 line~;
#X obj 145 462 pack 0 500;
#X obj 145 433 r global_volume_fade;
#X obj 65 528 *~;
#X obj 20 560 dac~ 1 2;
#X obj 476 23 _receive_IR_sensor;
#X obj 477 138 _IR_wait;
#X obj 477 112 tgl 15 0 empty empty empty 17 7 0 10 #fcfcfc #000000 #000000 0 1;
#X obj 477 68 loadbang;
#X msg 477 91 1;
#X obj 478 172 tgl 55 0 empty empty Players\ ready 63 26 2 16 #ffc7c6 #b40000 #ff0400 0 1;
#X obj 477 254 _countdown;
#X obj 476 299 tgl 55 0 empty empty Game\ played 63 26 2 16 #ffc7c6 #b40000 #ff0400 0 1;
#X obj 424 91 bng 18 250 50 0 empty empty empty 8 -8 0 10 #dfdfdf #000000 #000000;
#X obj 476 385 _receive_signs;
#X obj 474 425 tgl 55 0 empty empty Moves\ announced 63 26 2 16 #ffc7c6 #b40000 #ff0400 0 1;
#X obj 474 494 _declare_winner;
#X connect 0 0 1 0;
#X connect 1 0 3 0;
#X connect 3 0 2 0;
#X connect 3 0 4 0;
#X connect 6 0 8 0;
#X connect 7 0 12 0;
#X connect 8 0 13 0;
#X connect 9 0 8 1;
#X connect 9 0 12 1;
#X connect 10 0 9 0;
#X connect 11 0 10 0;
#X connect 12 0 13 1;
#X connect 15 0 19 0;
#X connect 16 0 15 0;
#X connect 17 0 18 0;
#X connect 18 0 16 0;
#X connect 19 0 20 0;
#X connect 20 0 21 0;
#X connect 21 0 23 0;
#X connect 22 0 18 0;
#X connect 23 0 24 0;
#X connect 24 0 25 0;
#X connect 25 0 22 0;
