#N canvas 75 22 716 535 10;
#X obj 7 10 cnv 15 700 250 empty empty empty 20 12 0 14 #fcfcc4 #404040 0;
#X obj 8 273 cnv 15 340 250 empty empty empty 20 12 0 14 #fce0c4 #404040 0;
#X obj 366 272 cnv 15 340 250 empty empty empty 20 12 0 14 #c4fcc4 #404040 0;
#X obj 43 224 s _a0;
#X floatatom 43 197 5 0 0 0 - - - 0;
#X obj 42 48 vsl 15 128 0 5 0 0 empty empty empty 0 -9 0 10 #fcfcfc #000000 #000000 0 1;
#X obj 399 322 tgl 40 0 empty empty empty 17 7 0 10 #fcfcfc #000000 #000000 0 1;
#X obj 399 372 s _d0;
#X obj 464 322 tgl 40 0 empty empty empty 17 7 0 10 #fcfcfc #000000 #000000 0 1;
#X obj 526 322 tgl 40 0 empty empty empty 17 7 0 10 #fcfcfc #000000 #000000 0 1;
#X obj 591 322 tgl 40 0 empty empty empty 17 7 0 10 #fcfcfc #000000 #000000 0 1;
#X obj 398 428 tgl 40 0 empty empty empty 17 7 0 10 #fcfcfc #000000 #000000 0 1;
#X obj 463 428 tgl 40 0 empty empty empty 17 7 0 10 #fcfcfc #000000 #000000 0 1;
#X obj 525 428 tgl 40 0 empty empty empty 17 7 0 10 #fcfcfc #000000 #000000 0 1;
#X obj 590 428 tgl 40 0 empty empty empty 17 7 0 10 #fcfcfc #000000 #000000 0 1;
#X obj 464 372 s _d1;
#X obj 526 372 s _d2;
#X obj 591 372 s _d3;
#X obj 398 478 s _d4;
#X obj 463 478 s _d5;
#X obj 525 478 s _d6;
#X obj 590 478 s _d7;
#X floatatom 127 197 5 0 0 0 - - - 0;
#X obj 127 52 vsl 15 128 0 5 0 0 empty empty empty 0 -9 0 10 #fcfcfc #000000 #000000 0 1;
#X floatatom 208 197 5 0 0 0 - - - 0;
#X obj 208 52 vsl 15 128 0 1 0 0 empty empty empty 0 -9 0 10 #fcfcfc #000000 #000000 0 1;
#X floatatom 290 197 5 0 0 0 - - - 0;
#X obj 290 52 vsl 15 128 0 1 0 0 empty empty empty 0 -9 0 10 #fcfcfc #000000 #000000 0 1;
#X floatatom 370 197 5 0 0 0 - - - 0;
#X obj 370 52 vsl 15 128 0 1 0 0 empty empty empty 0 -9 0 10 #fcfcfc #000000 #000000 0 1;
#X floatatom 450 197 5 0 0 0 - - - 0;
#X obj 450 52 vsl 15 128 0 1 0 0 empty empty empty 0 -9 0 10 #fcfcfc #000000 #000000 0 1;
#X floatatom 525 197 5 0 0 0 - - - 0;
#X obj 525 52 vsl 15 128 0 1 0 0 empty empty empty 0 -9 0 10 #fcfcfc #000000 #000000 0 1;
#X floatatom 607 197 5 0 0 0 - - - 0;
#X obj 607 52 vsl 15 128 0 1 0 0 empty empty empty 0 -9 0 10 #fcfcfc #000000 #000000 0 1;
#X obj 127 224 s _a1;
#X obj 208 224 s _a2;
#X obj 290 224 s _a3;
#X obj 370 224 s _a4;
#X obj 450 224 s _a5;
#X obj 525 224 s _a6;
#X obj 607 224 s _a7;
#X floatatom 44 458 5 0 0 0 - - - 0;
#X obj 44 313 vsl 15 128 0 1 0 0 empty empty empty 0 -9 0 10 #fcfcfc #000000 #000000 0 1;
#X floatatom 128 458 5 0 0 0 - - - 0;
#X obj 128 313 vsl 15 128 0 1 0 0 empty empty empty 0 -9 0 10 #fcfcfc #000000 #000000 0 1;
#X floatatom 209 458 5 0 0 0 - - - 0;
#X obj 209 313 vsl 15 128 0 1 0 0 empty empty empty 0 -9 0 10 #fcfcfc #000000 #000000 0 1;
#X obj 44 485 s _x;
#X obj 128 485 s _y;
#X obj 209 485 s _z;
#X text 41 279 IMU simulator;
#X text 42 17 Analog sensors simulator;
#X text 398 280 Digital sensors simulator;
#X connect 4 0 3 0;
#X connect 5 0 4 0;
#X connect 6 0 7 0;
#X connect 8 0 15 0;
#X connect 9 0 16 0;
#X connect 10 0 17 0;
#X connect 11 0 18 0;
#X connect 12 0 19 0;
#X connect 13 0 20 0;
#X connect 14 0 21 0;
#X connect 22 0 36 0;
#X connect 23 0 22 0;
#X connect 24 0 37 0;
#X connect 25 0 24 0;
#X connect 26 0 38 0;
#X connect 27 0 26 0;
#X connect 28 0 39 0;
#X connect 29 0 28 0;
#X connect 30 0 40 0;
#X connect 31 0 30 0;
#X connect 32 0 41 0;
#X connect 33 0 32 0;
#X connect 34 0 42 0;
#X connect 35 0 34 0;
#X connect 43 0 49 0;
#X connect 44 0 43 0;
#X connect 45 0 50 0;
#X connect 46 0 45 0;
#X connect 47 0 51 0;
#X connect 48 0 47 0;
